<svg width="35" height="34" viewBox="0 0 35 34" fill="none" xmlns="http://www.w3.org/2000/svg">
<path d="M31.2622 2.732C29.109 0.57876 25.7821 0.409013 23.8374 2.35857L17.0479 9.14808C17.7657 8.44003 20.0886 9.60394 22.237 11.7523C24.3854 13.9007 25.559 16.2383 24.8461 16.9512L31.6356 10.1617C33.5804 8.21209 33.4155 4.88525 31.2622 2.732Z" fill="white"/>
<path d="M11.7618 22.2324C9.60855 20.0792 8.44464 17.7514 9.15754 17.0385L2.36803 23.828C0.42817 25.7678 0.58821 29.0995 2.74145 31.2576C4.8947 33.4157 8.22156 33.5806 10.1711 31.6311L16.9606 24.8415C16.238 25.5496 13.9102 24.3857 11.7618 22.2324Z" fill="white"/>
<path d="M17.5426 12.8581C18.0275 12.3731 18.1973 11.699 17.8918 11.4032C17.5862 11.1073 16.9218 11.248 16.4369 11.7475C15.9519 12.247 15.7822 12.9017 16.0925 13.2024C16.4029 13.5031 17.0576 13.3576 17.5426 12.8581Z" fill="white"/>
<path d="M15.2051 15.2053C15.69 14.7203 15.8646 14.0462 15.5542 13.7504C15.2439 13.4546 14.5843 13.5952 14.0994 14.0996C13.6144 14.6039 13.4446 15.2538 13.755 15.5545C14.0654 15.8551 14.7056 15.7048 15.2051 15.2053Z" fill="white"/>
<path d="M13.2022 16.0879C12.8918 15.7775 12.2322 15.9327 11.7473 16.4371C11.2623 16.9414 11.0926 17.5913 11.4029 17.892C11.7133 18.1927 12.3729 18.0472 12.8578 17.5477C13.3428 17.0481 13.5125 16.3983 13.2022 16.0879Z" fill="white"/>
<path d="M22.2613 17.5574C22.7463 17.0724 22.916 16.3983 22.6056 16.1025C22.2952 15.8066 21.6357 15.9473 21.1507 16.4516C20.6658 16.956 20.4912 17.6059 20.8064 17.9065C21.1216 18.2072 21.7618 18.0569 22.2613 17.5574Z" fill="white"/>
<path d="M18.7889 18.7892C18.304 19.2741 18.1294 19.9434 18.4446 20.2441C18.7598 20.5447 19.4145 20.3992 19.8995 19.8997C20.3845 19.4002 20.5542 18.7407 20.2438 18.4448C19.9335 18.149 19.2885 18.2848 18.7889 18.7892Z" fill="white"/>
<path d="M16.4369 21.1364C15.9519 21.6214 15.7822 22.2906 16.0925 22.5913C16.4029 22.892 17.0625 22.7465 17.5474 22.2421C18.0324 21.7377 18.2021 21.0879 17.8966 20.7872C17.5911 20.4865 16.9364 20.6369 16.4369 21.1364Z" fill="white"/>
<path d="M21.0877 14.0317C21.5726 13.5467 21.7424 12.8726 21.432 12.5768C21.1216 12.2809 20.4621 12.4216 19.9771 12.9211C19.4921 13.4206 19.3224 14.0802 19.6328 14.376C19.9432 14.6718 20.5833 14.5312 21.0877 14.0317Z" fill="white"/>
<path d="M17.2662 16.7135C17.5765 17.019 18.2361 16.8687 18.721 16.3643C19.206 15.86 19.3757 15.2053 19.0654 14.9095C18.755 14.6136 18.0954 14.7543 17.6105 15.2538C17.1255 15.7533 16.9558 16.4177 17.2662 16.7135Z" fill="white"/>
<path d="M16.7279 17.2664C16.4175 16.956 15.7579 17.1112 15.273 17.6107C14.788 18.1102 14.6231 18.7649 14.9335 19.0656C15.2439 19.3663 15.9034 19.2256 16.3884 18.7213C16.8733 18.2169 17.0576 17.5719 16.7279 17.2664Z" fill="white"/>
<path d="M12.9112 19.9628C12.4262 20.4478 12.2516 21.117 12.562 21.4177C12.8724 21.7184 13.5319 21.568 14.0169 21.0685C14.5019 20.569 14.6667 19.9094 14.3564 19.6136C14.046 19.3178 13.4107 19.4584 12.9112 19.9628Z" fill="white"/>
<path d="M7.91604 15.7138L15.7191 7.91553L10.1614 2.35784C8.22156 0.417981 4.88985 0.578029 2.73176 2.73127C0.573667 4.88452 0.41363 8.21137 2.35834 10.1561L7.91604 15.7138Z" stroke="white" stroke-width="2" stroke-miterlimit="10"/>
<path d="M26.078 18.2751L18.2797 26.0782L23.8471 31.6359C25.787 33.5757 29.1187 33.4157 31.2719 31.2576C33.4252 29.0995 33.5901 25.7823 31.6454 23.8328L26.078 18.2751Z" stroke="white" stroke-width="2" stroke-miterlimit="10"/>
</svg>
