<svg width="12" height="12" viewBox="0 0 12 12" fill="none" xmlns="http://www.w3.org/2000/svg">
<path d="M6 0C2.69168 0 0 2.69154 0 6C0 9.30846 2.69168 12 6 12C9.30846 12 12 9.30846 12 6C12 2.69154 9.30832 0 6 0ZM6 11.1241C3.17461 11.1241 0.875906 8.82539 0.875906 6C0.875906 3.17461 3.17461 0.875906 6 0.875906C8.82539 0.875906 11.1241 3.17459 11.1241 5.99986C11.1241 8.82539 8.82539 11.1241 6 11.1241Z" fill="#B9B9B9"/>
<path d="M8.04422 6.00002H6.14641V3.37228C6.14641 3.13038 5.95036 2.93433 5.70846 2.93433C5.46656 2.93433 5.27051 3.13038 5.27051 3.37228V6.43798C5.27051 6.67987 5.46656 6.87593 5.70846 6.87593H8.04422C8.28612 6.87593 8.48217 6.67987 8.48217 6.43798C8.48217 6.19608 8.28612 6.00002 8.04422 6.00002Z" fill="#B9B9B9"/>
</svg>
